<svg width="980" height="210" viewBox="0 0 980 210" xmlns="http://www.w3.org/2000/svg">
  <defs>
    <linearGradient id="barfill" x1="0%" y1="0%" x2="100%" y2="0%">
      <stop offset="0%" stop-color="#6D28D9"/>
      <stop offset="100%" stop-color="#C084FC"/>
    </linearGradient>
  </defs>

  <line x1="60.0" y1="130" x2="920.0" y2="130" stroke="#3a3550" stroke-width="4" stroke-linecap="round"/>

  <line x1="60.0" y1="130" y2="130" stroke="url(#barfill)" stroke-width="4" stroke-linecap="round">
    <animate attributeName="x2" values="60.0;60.0;920.0;920.0;60.0" keyTimes="0.0;0.0014;0.5105;0.9301;1" dur="7.15s" begin="0s" repeatCount="indefinite" calcMode="spline" keySplines="0.4 0 0.2 1;0.4 0 0.2 1;0.4 0 0.2 1;0.4 0 0.2 1"/>
  </line>

  
    <g opacity="0">
      <animate attributeName="opacity" values="0;0;1;1;0" keyTimes="0;0.0;0.0699;0.9301;1.0" dur="7.15s" begin="0s" repeatCount="indefinite"/>
      <circle cx="60.0" cy="130" r="7" fill="#3776AB" stroke="#3776AB" stroke-width="2.5" />
      <text x="60.0" y="162" text-anchor="middle" font-family="-apple-system,Segoe UI,Helvetica,Arial,sans-serif" font-size="14" font-weight="700" fill="#c9c3ff">2019</text>
    </g>
    <g opacity="0">
      <animate attributeName="opacity" values="0;0;1;1;0" keyTimes="0;0.0629;0.1329;0.9301;1.0" dur="7.15s" begin="0s" repeatCount="indefinite"/>
      <circle cx="182.9" cy="130" r="7" fill="#F0DB4F" stroke="#F0DB4F" stroke-width="2.5" />
      <text x="182.9" y="162" text-anchor="middle" font-family="-apple-system,Segoe UI,Helvetica,Arial,sans-serif" font-size="14" font-weight="700" fill="#c9c3ff">2020</text>
    </g>
    <g opacity="0">
      <animate attributeName="opacity" values="0;0;1;1;0" keyTimes="0;0.1259;0.1958;0.9301;1.0" dur="7.15s" begin="0s" repeatCount="indefinite"/>
      <circle cx="305.7" cy="130" r="7" fill="#ED8B00" stroke="#ED8B00" stroke-width="2.5" />
      <text x="305.7" y="162" text-anchor="middle" font-family="-apple-system,Segoe UI,Helvetica,Arial,sans-serif" font-size="14" font-weight="700" fill="#c9c3ff">2021</text>
    </g>
    <g opacity="0">
      <animate attributeName="opacity" values="0;0;1;1;0" keyTimes="0;0.1888;0.2587;0.9301;1.0" dur="7.15s" begin="0s" repeatCount="indefinite"/>
      <circle cx="428.6" cy="130" r="7" fill="#3178C6" stroke="#3178C6" stroke-width="2.5" />
      <text x="428.6" y="162" text-anchor="middle" font-family="-apple-system,Segoe UI,Helvetica,Arial,sans-serif" font-size="14" font-weight="700" fill="#c9c3ff">2022</text>
    </g>
    <g opacity="0">
      <animate attributeName="opacity" values="0;0;1;1;0" keyTimes="0;0.2517;0.3217;0.9301;1.0" dur="7.15s" begin="0s" repeatCount="indefinite"/>
      <circle cx="551.4" cy="130" r="7" fill="#1572B6" stroke="#1572B6" stroke-width="2.5" />
      <text x="551.4" y="162" text-anchor="middle" font-family="-apple-system,Segoe UI,Helvetica,Arial,sans-serif" font-size="14" font-weight="700" fill="#c9c3ff">2023</text>
    </g>
    <g opacity="0">
      <animate attributeName="opacity" values="0;0;1;1;0" keyTimes="0;0.3147;0.3846;0.9301;1.0" dur="7.15s" begin="0s" repeatCount="indefinite"/>
      <circle cx="674.3" cy="130" r="7" fill="#8A9AE0" stroke="#8A9AE0" stroke-width="2.5" />
      <text x="674.3" y="162" text-anchor="middle" font-family="-apple-system,Segoe UI,Helvetica,Arial,sans-serif" font-size="14" font-weight="700" fill="#c9c3ff">2024</text>
    </g>
    <g opacity="0">
      <animate attributeName="opacity" values="0;0;1;1;0" keyTimes="0;0.3776;0.4476;0.9301;1.0" dur="7.15s" begin="0s" repeatCount="indefinite"/>
      <circle cx="797.1" cy="130" r="7" fill="#659AD2" stroke="#659AD2" stroke-width="2.5" />
      <text x="797.1" y="162" text-anchor="middle" font-family="-apple-system,Segoe UI,Helvetica,Arial,sans-serif" font-size="14" font-weight="700" fill="#c9c3ff">2025</text>
    </g>
    <g opacity="0">
      <animate attributeName="opacity" values="0;0;1;1;0" keyTimes="0;0.4406;0.5105;0.9301;1.0" dur="7.15s" begin="0s" repeatCount="indefinite"/>
      <circle cx="920.0" cy="130" r="7" fill="#0D0D14" stroke="#CE422B" stroke-width="2.5" stroke-dasharray="3 3"/>
      <text x="920.0" y="162" text-anchor="middle" font-family="-apple-system,Segoe UI,Helvetica,Arial,sans-serif" font-size="14" font-weight="700" fill="#8b8b99">2026 (pending)</text>
    </g>
  
    <g transform="translate(43.0,58.0)" opacity="0">
      <animate attributeName="opacity" values="0;0;1;1;0" keyTimes="0;0.0;0.0699;0.9301;1.0" dur="7.15s" begin="0s" repeatCount="indefinite"/>
      <animateTransform attributeName="transform" type="translate" additive="sum" values="0,0" begin="0s"/>
      <g>
        <animateTransform attributeName="transform" type="scale" values="0;0;1.2;1;0" keyTimes="0;0.0;0.0699;0.9301;1.0" dur="7.15s" begin="0s" repeatCount="indefinite" calcMode="spline" keySplines="0.4 0 0.2 1;0.34 1.56 0.64 1;0.4 0 0.2 1;0.4 0 0.2 1" additive="sum"/>
        <g transform="translate(17.0,17.0) scale(1.417) translate(-12,-12)">
          <path d="M14.25.18l.9.2.73.26.59.3.45.32.34.34.25.34.16.33.1.3.04.26.02.2-.01.13V8.5l-.05.63-.13.55-.21.46-.26.38-.3.31-.33.25-.35.19-.35.14-.33.1-.3.07-.26.04-.21.02H8.77l-.69.05-.59.14-.5.22-.41.27-.33.32-.27.35-.2.36-.15.37-.1.35-.07.32-.04.27-.02.21v3.06H3.17l-.21-.03-.28-.07-.32-.12-.35-.18-.36-.26-.36-.36-.35-.46-.32-.59-.28-.73-.21-.88-.14-1.05-.05-1.23.06-1.22.16-1.04.24-.87.32-.71.36-.57.4-.44.42-.33.42-.24.4-.16.36-.1.32-.05.24-.01h.16l.06.01h8.16v-.83H6.18l-.01-2.75-.02-.37.05-.34.11-.31.17-.28.25-.26.31-.23.38-.2.44-.18.51-.15.58-.12.64-.1.71-.06.77-.04.84-.02 1.27.05zm-6.3 1.98l-.23.33-.08.41.08.41.23.34.33.22.41.09.41-.09.33-.22.23-.34.08-.41-.08-.41-.23-.33-.33-.22-.41-.09-.41.09zm13.09 3.95l.28.06.32.12.35.18.36.27.36.35.35.47.32.59.28.73.21.88.14 1.04.05 1.23-.06 1.23-.16 1.04-.24.86-.32.71-.36.57-.4.45-.42.33-.42.24-.4.16-.36.09-.32.05-.24.02-.16-.01h-8.22v.82h5.84l.01 2.76.02.36-.05.34-.11.31-.17.29-.25.25-.31.24-.38.2-.44.17-.51.15-.58.13-.64.09-.71.07-.77.04-.84.01-1.27-.04-1.07-.14-.9-.2-.73-.25-.59-.3-.45-.33-.34-.34-.25-.34-.16-.33-.1-.3-.04-.25-.02-.2.01-.13v-5.34l.05-.64.13-.54.21-.46.26-.38.3-.32.33-.24.35-.2.35-.14.33-.1.3-.06.26-.04.21-.02.13-.01h5.84l.69-.05.59-.14.5-.21.41-.28.33-.32.27-.35.2-.36.15-.36.1-.35.07-.32.04-.28.02-.21V6.07h2.09l.14.01zm-6.47 14.25l-.23.33-.08.41.08.41.23.33.33.23.41.08.41-.08.33-.23.23-.33.08-.41-.08-.41-.23-.33-.33-.23-.41-.08-.41.08z" fill="#3776AB"/>
        </g>
      </g>
    </g>
    <g transform="translate(165.9,58.0)" opacity="0">
      <animate attributeName="opacity" values="0;0;1;1;0" keyTimes="0;0.0629;0.1329;0.9301;1.0" dur="7.15s" begin="0s" repeatCount="indefinite"/>
      <animateTransform attributeName="transform" type="translate" additive="sum" values="0,0" begin="0s"/>
      <g>
        <animateTransform attributeName="transform" type="scale" values="0;0;1.2;1;0" keyTimes="0;0.0629;0.1329;0.9301;1.0" dur="7.15s" begin="0s" repeatCount="indefinite" calcMode="spline" keySplines="0.4 0 0.2 1;0.34 1.56 0.64 1;0.4 0 0.2 1;0.4 0 0.2 1" additive="sum"/>
        <g transform="translate(17.0,17.0) scale(1.417) translate(-12,-12)">
          <path d="M0 0h24v24H0V0zm22.034 18.276c-.175-1.095-.888-2.015-3.003-2.873-.736-.345-1.554-.585-1.797-1.14-.091-.33-.105-.51-.046-.705.15-.646.915-.84 1.515-.66.39.12.75.42.976.9 1.034-.676 1.034-.676 1.755-1.125-.27-.42-.404-.601-.586-.78-.63-.705-1.469-1.065-2.834-1.034l-.705.089c-.676.165-1.32.525-1.71 1.005-1.14 1.291-.811 3.541.569 4.471 1.365 1.02 3.361 1.244 3.616 2.205.24 1.17-.87 1.545-1.966 1.41-.811-.18-1.26-.586-1.755-1.336l-1.83 1.051c.21.48.45.689.81 1.109 1.74 1.756 6.09 1.666 6.871-1.004.029-.09.24-.705.074-1.65l.046.067zm-8.983-7.245h-2.248c0 1.938-.009 3.864-.009 5.805 0 1.232.063 2.363-.138 2.711-.33.689-1.18.601-1.566.48-.396-.196-.597-.466-.83-.855-.063-.105-.11-.196-.127-.196l-1.825 1.125c.305.63.75 1.172 1.324 1.517.855.51 2.004.675 3.207.405.783-.226 1.458-.691 1.811-1.411.51-.93.402-2.07.397-3.346.012-2.054 0-4.109 0-6.179l.004-.056z" fill="#F0DB4F"/>
        </g>
      </g>
    </g>
    <g transform="translate(288.7,58.0)" opacity="0">
      <animate attributeName="opacity" values="0;0;1;1;0" keyTimes="0;0.1259;0.1958;0.9301;1.0" dur="7.15s" begin="0s" repeatCount="indefinite"/>
      <animateTransform attributeName="transform" type="translate" additive="sum" values="0,0" begin="0s"/>
      <g>
        <animateTransform attributeName="transform" type="scale" values="0;0;1.2;1;0" keyTimes="0;0.1259;0.1958;0.9301;1.0" dur="7.15s" begin="0s" repeatCount="indefinite" calcMode="spline" keySplines="0.4 0 0.2 1;0.34 1.56 0.64 1;0.4 0 0.2 1;0.4 0 0.2 1" additive="sum"/>
        <g transform="translate(17.0,17.0) scale(1.417) translate(-12,-12)">
          <path d="M8.851 18.56s-.917.534.653.714c1.902.218 2.874.187 4.969-.211 0 0 .552.346 1.321.646-4.699 2.013-10.633-.118-6.943-1.149M8.276 15.933s-1.028.761.542.924c2.032.209 3.636.227 6.413-.308 0 0 .384.389.987.602-5.679 1.661-12.007.13-7.942-1.218M13.116 11.475c1.158 1.333-.304 2.533-.304 2.533s2.939-1.518 1.589-3.418c-1.261-1.772-2.228-2.652 3.007-5.688 0-.001-8.216 2.051-4.292 6.573M19.33 20.504s.679.559-.747.991c-2.712.822-11.288 1.069-13.669.033-.856-.373.75-.89 1.254-.998.527-.114.828-.093.828-.093-.953-.671-6.156 1.317-2.643 1.887 9.58 1.553 17.462-.7 14.977-1.82M9.292 13.21s-4.362 1.036-1.544 1.412c1.189.159 3.561.123 5.77-.062 1.806-.152 3.618-.477 3.618-.477s-.637.272-1.098.587c-4.429 1.165-12.986.623-10.522-.568 2.082-1.006 3.776-.892 3.776-.892M17.116 17.584c4.503-2.34 2.421-4.589.968-4.285-.355.074-.515.138-.515.138s.132-.207.385-.297c2.875-1.011 5.086 2.981-.928 4.562 0-.001.07-.062.09-.118M14.401 0s2.494 2.494-2.365 6.33c-3.896 3.077-.888 4.832-.001 6.836-2.274-2.053-3.943-3.858-2.824-5.539 1.644-2.469 6.197-3.665 5.19-7.627M9.734 23.924c4.322.277 10.959-.153 11.116-2.198 0 0-.302.775-3.572 1.391-3.688.694-8.239.613-10.937.168 0-.001.553.457 3.393.639" fill="#ED8B00"/>
        </g>
      </g>
    </g>
    <g transform="translate(385.6,58.0)" opacity="0">
      <animate attributeName="opacity" values="0;0;1;1;0" keyTimes="0;0.1888;0.2587;0.9301;1.0" dur="7.15s" begin="0s" repeatCount="indefinite"/>
      <animateTransform attributeName="transform" type="translate" additive="sum" values="0,0" begin="0s"/>
      <g>
        <animateTransform attributeName="transform" type="scale" values="0;0;1.2;1;0" keyTimes="0;0.1888;0.2587;0.9301;1.0" dur="7.15s" begin="0s" repeatCount="indefinite" calcMode="spline" keySplines="0.4 0 0.2 1;0.34 1.56 0.64 1;0.4 0 0.2 1;0.4 0 0.2 1" additive="sum"/>
        <g transform="translate(17.0,17.0) scale(1.417) translate(-12,-12)">
          <path d="M1.125 0C.502 0 0 .502 0 1.125v21.75C0 23.498.502 24 1.125 24h21.75c.623 0 1.125-.502 1.125-1.125V1.125C24 .502 23.498 0 22.875 0zm17.363 9.75c.612 0 1.154.037 1.627.111a6.38 6.38 0 0 1 1.306.34v2.458a3.95 3.95 0 0 0-.643-.361 5.093 5.093 0 0 0-.717-.26 5.453 5.453 0 0 0-1.426-.2c-.3 0-.573.028-.819.086a2.1 2.1 0 0 0-.623.242c-.17.104-.3.229-.393.374a.888.888 0 0 0-.14.49c0 .196.053.373.156.529.104.156.252.304.443.444s.423.276.696.41c.273.135.582.274.926.416.47.197.892.407 1.266.628.374.222.695.473.963.753.268.279.472.598.614.957.142.359.214.776.214 1.253 0 .657-.125 1.21-.373 1.656a3.033 3.033 0 0 1-1.012 1.085 4.38 4.38 0 0 1-1.487.596c-.566.12-1.163.18-1.79.18a9.916 9.916 0 0 1-1.84-.164 5.544 5.544 0 0 1-1.512-.493v-2.63a5.033 5.033 0 0 0 3.237 1.2c.333 0 .624-.03.872-.09.249-.06.456-.144.623-.25.166-.108.29-.234.373-.38a1.023 1.023 0 0 0-.074-1.089 2.12 2.12 0 0 0-.537-.5 5.597 5.597 0 0 0-.807-.444 27.72 27.72 0 0 0-1.007-.436c-.918-.383-1.602-.852-2.053-1.405-.45-.553-.676-1.222-.676-2.005 0-.614.123-1.141.369-1.582.246-.441.58-.804 1.004-1.089a4.494 4.494 0 0 1 1.47-.629 7.536 7.536 0 0 1 1.77-.201zm-15.113.188h9.563v2.166H9.506v9.646H6.789v-9.646H3.375z" fill="#3178C6"/>
        </g>
      </g>
    </g>
    <g transform="translate(437.6,58.0)" opacity="0">
      <animate attributeName="opacity" values="0;0;1;1;0" keyTimes="0;0.2;0.2699;0.9301;1.0" dur="7.15s" begin="0s" repeatCount="indefinite"/>
      <animateTransform attributeName="transform" type="translate" additive="sum" values="0,0" begin="0s"/>
      <g>
        <animateTransform attributeName="transform" type="scale" values="0;0;1.2;1;0" keyTimes="0;0.2;0.2699;0.9301;1.0" dur="7.15s" begin="0s" repeatCount="indefinite" calcMode="spline" keySplines="0.4 0 0.2 1;0.34 1.56 0.64 1;0.4 0 0.2 1;0.4 0 0.2 1" additive="sum"/>
        <g transform="translate(17.0,17.0) scale(1.417) translate(-12,-12)">
          <path d="M1.194 7.543v8.913c0 1.103.588 2.122 1.544 2.674l7.718 4.456a3.086 3.086 0 0 0 3.088 0l7.718-4.456a3.087 3.087 0 0 0 1.544-2.674V7.543a3.084 3.084 0 0 0-1.544-2.673L13.544.414a3.086 3.086 0 0 0-3.088 0L2.738 4.87a3.085 3.085 0 0 0-1.544 2.673Zm5.403 2.914v3.087a.77.77 0 0 0 .772.772.773.773 0 0 0 .772-.772.773.773 0 0 1 1.317-.546.775.775 0 0 1 .226.546 2.314 2.314 0 1 1-4.631 0v-3.087c0-.615.244-1.203.679-1.637a2.312 2.312 0 0 1 3.274 0c.434.434.678 1.023.678 1.637a.769.769 0 0 1-.226.545.767.767 0 0 1-1.091 0 .77.77 0 0 1-.226-.545.77.77 0 0 0-.772-.772.771.771 0 0 0-.772.772Zm12.35 3.087a.77.77 0 0 1-.772.772h-.772v.772a.773.773 0 0 1-1.544 0v-.772h-1.544v.772a.773.773 0 0 1-1.317.546.775.775 0 0 1-.226-.546v-.772H12a.771.771 0 1 1 0-1.544h.772v-1.543H12a.77.77 0 1 1 0-1.544h.772v-.772a.773.773 0 0 1 1.317-.546.775.775 0 0 1 .226.546v.772h1.544v-.772a.773.773 0 0 1 1.544 0v.772h.772a.772.772 0 0 1 0 1.544h-.772v1.543h.772a.776.776 0 0 1 .772.772Zm-3.088-2.315h-1.544v1.543h1.544v-1.543Z" fill="#9B4F96"/>
        </g>
      </g>
    </g>
    <g transform="translate(508.4,58.0)" opacity="0">
      <animate attributeName="opacity" values="0;0;1;1;0" keyTimes="0;0.2517;0.3217;0.9301;1.0" dur="7.15s" begin="0s" repeatCount="indefinite"/>
      <animateTransform attributeName="transform" type="translate" additive="sum" values="0,0" begin="0s"/>
      <g>
        <animateTransform attributeName="transform" type="scale" values="0;0;1.2;1;0" keyTimes="0;0.2517;0.3217;0.9301;1.0" dur="7.15s" begin="0s" repeatCount="indefinite" calcMode="spline" keySplines="0.4 0 0.2 1;0.34 1.56 0.64 1;0.4 0 0.2 1;0.4 0 0.2 1" additive="sum"/>
        <g transform="translate(17.0,17.0) scale(1.417) translate(-12,-12)">
          <path d="M1.5 0h21l-1.91 21.563L11.977 24l-8.565-2.438L1.5 0zm17.09 4.413L5.41 4.41l.213 2.622 10.125.002-.255 2.716h-6.64l.24 2.573h6.182l-.366 3.523-2.91.804-2.956-.81-.188-2.11h-2.61l.29 3.855L12 19.288l5.373-1.53L18.59 4.414z" fill="#1572B6"/>
        </g>
      </g>
    </g>
    <g transform="translate(560.4,58.0)" opacity="0">
      <animate attributeName="opacity" values="0;0;1;1;0" keyTimes="0;0.2629;0.3329;0.9301;1.0" dur="7.15s" begin="0s" repeatCount="indefinite"/>
      <animateTransform attributeName="transform" type="translate" additive="sum" values="0,0" begin="0s"/>
      <g>
        <animateTransform attributeName="transform" type="scale" values="0;0;1.2;1;0" keyTimes="0;0.2629;0.3329;0.9301;1.0" dur="7.15s" begin="0s" repeatCount="indefinite" calcMode="spline" keySplines="0.4 0 0.2 1;0.34 1.56 0.64 1;0.4 0 0.2 1;0.4 0 0.2 1" additive="sum"/>
        <g transform="translate(17.0,17.0) scale(1.417) translate(-12,-12)">
          <path d="M1.5 0h21l-1.91 21.563L11.977 24l-8.564-2.438L1.5 0zm7.031 9.75l-.232-2.718 10.059.003.23-2.622L5.412 4.41l.698 8.01h9.126l-.326 3.426-2.91.804-2.955-.81-.188-2.11H6.248l.33 4.171L12 19.351l5.379-1.443.744-8.157H8.531z" fill="#E34F26"/>
        </g>
      </g>
    </g>
    <g transform="translate(657.3,58.0)" opacity="0">
      <animate attributeName="opacity" values="0;0;1;1;0" keyTimes="0;0.3147;0.3846;0.9301;1.0" dur="7.15s" begin="0s" repeatCount="indefinite"/>
      <animateTransform attributeName="transform" type="translate" additive="sum" values="0,0" begin="0s"/>
      <g>
        <animateTransform attributeName="transform" type="scale" values="0;0;1.2;1;0" keyTimes="0;0.3147;0.3846;0.9301;1.0" dur="7.15s" begin="0s" repeatCount="indefinite" calcMode="spline" keySplines="0.4 0 0.2 1;0.34 1.56 0.64 1;0.4 0 0.2 1;0.4 0 0.2 1" additive="sum"/>
        <g transform="translate(17.0,17.0) scale(1.417) translate(-12,-12)">
          <path d="M.38 10.377l-.272-.037c-.048.344-.082.695-.101 1.041l.275.016c.018-.34.051-.682.098-1.02zM4.136 3.289l-.184-.205c-.258.232-.509.48-.746.734l.202.188c.231-.248.476-.49.728-.717zM5.769 2.059l-.146-.235c-.296.186-.586.385-.863.594l.166.219c.27-.203.554-.399.843-.578zM1.824 18.369c.185.297.384.586.593.863l.22-.164c-.205-.271-.399-.555-.58-.844l-.233.145zM1.127 16.402l-.255.104c.129.318.274.635.431.943l.005.01.245-.125-.005-.01c-.153-.301-.295-.611-.421-.922zM.298 9.309l.269.063c.076-.332.168-.664.272-.986l-.261-.087c-.108.332-.202.672-.28 1.01zM.274 12.42l-.275.01c.012.348.04.699.083 1.043l.273-.033c-.042-.336-.069-.68-.081-1.02zM.256 14.506c.073.34.162.682.264 1.014l.263-.08c-.1-.326-.187-.658-.258-.99l-.269.056zM11.573.275L11.563 0c-.348.012-.699.039-1.044.082l.034.273c.338-.041.68-.068 1.02-.08zM23.221 8.566c.1.326.186.66.256.992l.27-.059c-.072-.34-.16-.682-.262-1.014l-.264.081zM17.621 1.389c-.309-.164-.627-.314-.947-.449l-.107.252c.314.133.625.281.926.439l.128-.242zM15.693.572c-.332-.105-.67-.199-1.01-.277l-.063.268c.332.076.664.168.988.273l.085-.264zM6.674 1.545c.298-.15.606-.291.916-.418L7.486.873c-.317.127-.632.272-.937.428l-.015.008.125.244.015-.008zM23.727 11.588l.275-.01a11.797 11.797 0 0 0-.082-1.045l-.273.033c.041.338.068.682.08 1.022zM13.654.105c-.346-.047-.696-.08-1.043-.098l-.014.273c.339.018.683.051 1.019.098l.038-.273zM9.544.527l-.058-.27c-.34.072-.681.16-1.014.264l.081.262c.325-.099.659-.185.991-.256zM1.921 5.469l.231.15c.185-.285.384-.566.592-.834l-.217-.17c-.213.276-.417.563-.606.854zM.943 7.318l.253.107c.132-.313.28-.625.439-.924l-.243-.128c-.163.307-.314.625-.449.945zM18.223 21.943l.145.234c.295-.186.586-.385.863-.594l-.164-.219c-.272.204-.557.4-.844.579zM21.248 19.219l.217.17c.215-.273.418-.561.607-.854l-.23-.148c-.186.285-.385.564-.594.832zM19.855 20.715l.184.203c.258-.23.51-.479.746-.732l-.201-.188c-.23.248-.477.488-.729.717zM22.359 17.504l.244.129c.162-.307.314-.625.449-.945l-.254-.107a11.27 11.27 0 0 1-.439.923zM23.617 13.629l.273.039c.049-.346.082-.695.102-1.043l-.275-.014c-.018.338-.051.682-.1 1.018zM23.156 15.621l.264.086c.107-.332.201-.67.279-1.01l-.268-.063c-.077.333-.169.665-.275.987zM22.453 6.672c.154.303.297.617.424.932l.256-.104c-.131-.322-.277-.643-.436-.953l-.244.125zM8.296 23.418c.331.107.67.201 1.009.279l.062-.268c-.331-.076-.663-.168-.986-.273l-.085.262zM10.335 23.889c.345.049.696.082 1.043.102l.014-.275c-.339-.018-.682-.051-1.019-.098l-.038.271zM17.326 22.449c-.303.154-.613.297-.926.424l.104.256c.318-.131.639-.275.947-.434l.004-.002-.123-.246-.006.002zM4.613 21.467c.274.213.562.418.854.605l.149-.23c-.285-.184-.565-.385-.833-.592l-.17.217zM12.417 23.725l.009.275c.348-.014.699-.041 1.045-.084l-.035-.271c-.336.041-.68.068-1.019.08zM6.37 22.604c.307.162.625.314.946.449l.107-.254c-.313-.133-.624-.279-.924-.439l-.129.244zM3.083 20.041c.233.258.48.51.734.746l.188-.201c-.249-.23-.49-.477-.717-.729l-.205.184zM14.445 23.475l.059.27c.34-.074.68-.162 1.014-.266l-.082-.262c-.325.099-.659.185-.991.258zM21.18.129A2.689 2.689 0 1 0 21.18 5.507 2.689 2.689 0 1 0 21.18.129zM15.324 15.447c0 .471.314.66.852.66.67 0 1.297-.396 1.297-1.016v-.645c-.23.107-.379.141-1.107.24-.735.109-1.042.306-1.042.761zM12 2.818c-5.07 0-9.18 4.109-9.18 9.18 0 5.068 4.11 9.18 9.18 9.18 5.07 0 9.18-4.111 9.18-9.18 0-5.07-4.11-9.18-9.18-9.18zm-2.487 13.77H5.771v-6.023h.769v5.346h2.974v.677zm4.13 0h-.619v-.67c-.405.57-.811.793-1.446.793-.843 0-1.38-.463-1.38-1.182v-3.271h.686v3c0 .52.347.85.893.85.719 0 1.181-.578 1.181-1.461v-2.389h.686v4.33zm-.53-8.393c0-1.484 1.205-2.689 2.689-2.689s2.688 1.205 2.688 2.689-1.203 2.688-2.688 2.688-2.689-1.203-2.689-2.688zm5.567 7.856v.52c-.223.059-.33.074-.471.074-.34 0-.637-.238-.711-.57-.381.406-.918.637-1.471.637-.877 0-1.422-.463-1.422-1.248 0-.527.256-.916.76-1.123.266-.107.414-.141 1.389-.264.545-.066.719-.191.719-.48v-.182c0-.412-.348-.645-.967-.645-.645 0-.957.24-1.016.77h-.693c.041-1 .686-1.404 1.734-1.404 1.066 0 1.627.412 1.627 1.182v2.412c0 .215.133.338.373.338.041-.002.074-.002.149-.017z" fill="#8A9AE0"/>
        </g>
      </g>
    </g>
    <g transform="translate(780.1,58.0)" opacity="0">
      <animate attributeName="opacity" values="0;0;1;1;0" keyTimes="0;0.3776;0.4476;0.9301;1.0" dur="7.15s" begin="0s" repeatCount="indefinite"/>
      <animateTransform attributeName="transform" type="translate" additive="sum" values="0,0" begin="0s"/>
      <g>
        <animateTransform attributeName="transform" type="scale" values="0;0;1.2;1;0" keyTimes="0;0.3776;0.4476;0.9301;1.0" dur="7.15s" begin="0s" repeatCount="indefinite" calcMode="spline" keySplines="0.4 0 0.2 1;0.34 1.56 0.64 1;0.4 0 0.2 1;0.4 0 0.2 1" additive="sum"/>
        <g transform="translate(17.0,17.0) scale(1.417) translate(-12,-12)">
          <path d="M22.394 6c-.167-.29-.398-.543-.652-.69L12.926.22c-.509-.294-1.34-.294-1.848 0L2.26 5.31c-.508.293-.923 1.013-.923 1.6v10.18c0 .294.104.62.271.91.167.29.398.543.652.69l8.816 5.09c.508.293 1.34.293 1.848 0l8.816-5.09c.254-.147.485-.4.652-.69.167-.29.27-.616.27-.91V6.91c.003-.294-.1-.62-.268-.91zM12 19.11c-3.92 0-7.109-3.19-7.109-7.11 0-3.92 3.19-7.11 7.11-7.11a7.133 7.133 0 016.156 3.553l-3.076 1.78a3.567 3.567 0 00-3.08-1.78A3.56 3.56 0 008.444 12 3.56 3.56 0 0012 15.555a3.57 3.57 0 003.08-1.778l3.078 1.78A7.135 7.135 0 0112 19.11zm7.11-6.715h-.79v.79h-.79v-.79h-.79v-.79h.79v-.79h.79v.79h.79zm2.962 0h-.79v.79h-.79v-.79h-.79v-.79h.79v-.79h.79v.79h.79z" fill="#659AD2"/>
        </g>
      </g>
    </g>
    <g transform="translate(903.0,58.0)" opacity="0">
      <animate attributeName="opacity" values="0;0;1;1;0" keyTimes="0;0.4406;0.5105;0.9301;1.0" dur="7.15s" begin="0s" repeatCount="indefinite"/>
      <animateTransform attributeName="transform" type="translate" additive="sum" values="0,0" begin="0s"/>
      <g>
        <animateTransform attributeName="transform" type="scale" values="0;0;1.2;1;0" keyTimes="0;0.4406;0.5105;0.9301;1.0" dur="7.15s" begin="0s" repeatCount="indefinite" calcMode="spline" keySplines="0.4 0 0.2 1;0.34 1.56 0.64 1;0.4 0 0.2 1;0.4 0 0.2 1" additive="sum"/>
        <g transform="translate(17.0,17.0) scale(1.417) translate(-12,-12)">
          <path d="M23.8346 11.7033l-1.0073-.6236a13.7268 13.7268 0 00-.0283-.2936l.8656-.8069a.3483.3483 0 00-.1154-.578l-1.1066-.414a8.4958 8.4958 0 00-.087-.2856l.6904-.9587a.3462.3462 0 00-.2257-.5446l-1.1663-.1894a9.3574 9.3574 0 00-.1407-.2622l.49-1.0761a.3437.3437 0 00-.0274-.3361.3486.3486 0 00-.3006-.154l-1.1845.0416a6.7444 6.7444 0 00-.1873-.2268l.2723-1.153a.3472.3472 0 00-.417-.4172l-1.1532.2724a14.0183 14.0183 0 00-.2278-.1873l.0415-1.1845a.3442.3442 0 00-.49-.328l-1.076.491c-.0872-.0476-.1742-.0952-.2623-.1407l-.1903-1.1673A.3483.3483 0 0016.256.955l-.9597.6905a8.4867 8.4867 0 00-.2855-.086l-.414-1.1066a.3483.3483 0 00-.5781-.1154l-.8069.8666a9.2936 9.2936 0 00-.2936-.0284L12.2946.1683a.3462.3462 0 00-.5892 0l-.6236 1.0073a13.7383 13.7383 0 00-.2936.0284L9.9803.3374a.3462.3462 0 00-.578.1154l-.4141 1.1065c-.0962.0274-.1903.0567-.2855.086L7.744.955a.3483.3483 0 00-.5447.2258L7.009 2.348a9.3574 9.3574 0 00-.2622.1407l-1.0762-.491a.3462.3462 0 00-.49.328l.0416 1.1845a7.9826 7.9826 0 00-.2278.1873L3.8413 3.425a.3472.3472 0 00-.4171.4171l.2713 1.1531c-.0628.075-.1255.1509-.1863.2268l-1.1845-.0415a.3462.3462 0 00-.328.49l.491 1.0761a9.167 9.167 0 00-.1407.2622l-1.1662.1894a.3483.3483 0 00-.2258.5446l.6904.9587a13.303 13.303 0 00-.087.2855l-1.1065.414a.3483.3483 0 00-.1155.5781l.8656.807a9.2936 9.2936 0 00-.0283.2935l-1.0073.6236a.3442.3442 0 000 .5892l1.0073.6236c.008.0982.0182.1964.0283.2936l-.8656.8079a.3462.3462 0 00.1155.578l1.1065.4141c.0273.0962.0567.1914.087.2855l-.6904.9587a.3452.3452 0 00.2268.5447l1.1662.1893c.0456.088.0922.1751.1408.2622l-.491 1.0762a.3462.3462 0 00.328.49l1.1834-.0415c.0618.0769.1235.1528.1873.2277l-.2713 1.1541a.3462.3462 0 00.4171.4161l1.153-.2713c.075.0638.151.1255.2279.1863l-.0415 1.1845a.3442.3442 0 00.49.327l1.0761-.49c.087.0486.1741.0951.2622.1407l.1903 1.1662a.3483.3483 0 00.5447.2268l.9587-.6904a9.299 9.299 0 00.2855.087l.414 1.1066a.3452.3452 0 00.5781.1154l.8079-.8656c.0972.0111.1954.0203.2936.0294l.6236 1.0073a.3472.3472 0 00.5892 0l.6236-1.0073c.0982-.0091.1964-.0183.2936-.0294l.8069.8656a.3483.3483 0 00.578-.1154l.4141-1.1066a8.4626 8.4626 0 00.2855-.087l.9587.6904a.3452.3452 0 00.5447-.2268l.1903-1.1662c.088-.0456.1751-.0931.2622-.1407l1.0762.49a.3472.3472 0 00.49-.327l-.0415-1.1845a6.7267 6.7267 0 00.2267-.1863l1.1531.2713a.3472.3472 0 00.4171-.416l-.2713-1.1542c.0628-.0749.1255-.1508.1863-.2278l1.1845.0415a.3442.3442 0 00.328-.49l-.49-1.076c.0475-.0872.0951-.1742.1407-.2623l1.1662-.1893a.3483.3483 0 00.2258-.5447l-.6904-.9587.087-.2855 1.1066-.414a.3462.3462 0 00.1154-.5781l-.8656-.8079c.0101-.0972.0202-.1954.0283-.2936l1.0073-.6236a.3442.3442 0 000-.5892zm-6.7413 8.3551a.7138.7138 0 01.2986-1.396.714.714 0 11-.2997 1.396zm-.3422-2.3142a.649.649 0 00-.7715.5l-.3573 1.6685c-1.1035.501-2.3285.7795-3.6193.7795a8.7368 8.7368 0 01-3.6951-.814l-.3574-1.6684a.648.648 0 00-.7714-.499l-1.473.3158a8.7216 8.7216 0 01-.7613-.898h7.1676c.081 0 .1356-.0141.1356-.088v-2.536c0-.074-.0536-.0881-.1356-.0881h-2.0966v-1.6077h2.2677c.2065 0 1.1065.0587 1.394 1.2088.0901.3533.2875 1.5044.4232 1.8729.1346.413.6833 1.2381 1.2685 1.2381h3.5716a.7492.7492 0 00.1296-.0131 8.7874 8.7874 0 01-.8119.9526zM6.8369 20.024a.714.714 0 11-.2997-1.396.714.714 0 01.2997 1.396zM4.1177 8.9972a.7137.7137 0 11-1.304.5791.7137.7137 0 011.304-.579zm-.8352 1.9813l1.5347-.6824a.65.65 0 00.33-.8585l-.3158-.7147h1.2432v5.6025H3.5669a8.7753 8.7753 0 01-.2834-3.348zm6.7343-.5437V8.7836h2.9601c.153 0 1.0792.1772 1.0792.8697 0 .575-.7107.7815-1.2948.7815zm10.7574 1.4862c0 .2187-.008.4363-.0243.651h-.9c-.09 0-.1265.0586-.1265.1477v.413c0 .973-.5487 1.1846-1.0296 1.2382-.4576.0517-.9648-.1913-1.0275-.4717-.2704-1.5186-.7198-1.8436-1.4305-2.4034.8817-.5599 1.799-1.386 1.799-2.4915 0-1.1936-.819-1.9458-1.3769-2.3153-.7825-.5163-1.6491-.6195-1.883-.6195H5.4682a8.7651 8.7651 0 014.907-2.7699l1.0974 1.151a.648.648 0 00.9182.0213l1.227-1.1743a8.7753 8.7753 0 016.0044 4.2762l-.8403 1.8982a.652.652 0 00.33.8585l1.6178.7188c.0283.2875.0425.577.0425.8717zm-9.3006-9.5993a.7128.7128 0 11.984 1.0316.7137.7137 0 01-.984-1.0316zm8.3389 6.71a.7107.7107 0 01.9395-.3625.7137.7137 0 11-.9405.3635z" fill="#CE422B"/>
        </g>
      </g>
    </g>
</svg>
